P3
70 57
255
0 0 0 0 0 0 0 0 0 0 0 0 0 0 0 0 0 0 0 0 0 0 0 0 0 0 0 0 0 0 0 0 0 0 0 0 0 0 0 33 68 33 6 19 3 0 0 0 0 0 0 0 0 0 0 0 0 0 0 0 0 0 0 0 0 0 0 0 0 0 0 0 0 0 0 0 0 0 0 0 0 0 0 0 0 0 0 0 0 0 0 0 0 0 0 0 0 0 0 0 0 0 0 0 0 0 0 0 0 0 0 0 0 0 0 0 0 0 0 0 0 0 0 0 0 0 0 0 0 0 0 0 0 0 0 0 0 0 0 0 0 0 0 0 0 0 0 0 0 0 0 0 0 0 0 0 0 0 0 0 0 0 0 0 0 4 11 2 33 68 33 4 11 2 0 0 0 0 0 0 0 0 0 0 0 0 0 0 0 0 0 0 0 0 0 0 0 0 0 0 0 0 0 0 0 0 0 0 0 0 
0 0 0 0 0 0 0 0 0 0 0 0 0 0 0 0 0 0 0 0 0 0 0 0 0 0 0 0 0 0 0 0 0 0 0 0 0 0 0 14 36 14 51 108 51 27 59 27 4 11 2 0 0 0 0 0 0 0 0 0 0 0 0 0 0 0 0 0 0 0 0 0 0 0 0 4 11 2 4 11 2 4 11 2 4 11 2 4 11 2 4 11 2 4 11 2 4 11 2 4 11 2 4 11 2 4 11 2 4 11 2 4 11 2 4 11 2 4 11 2 4 11 2 4 11 2 4 11 2 4 11 2 4 11 2 0 0 0 0 0 0 0 0 0 0 0 0 0 0 0 0 0 0 0 0 0 0 0 0 0 0 0 27 59 27 54 113 54 22 51 22 0 0 0 0 0 0 0 0 0 0 0 0 0 0 0 0 0 0 0 0 0 0 0 0 0 0 0 0 0 0 0 0 0 0 0 0 0 0 0 
0 0 0 0 0 0 0 0 0 0 0 0 0 0 0 0 0 0 0 0 0 0 0 0 0 0 0 0 0 0 0 0 0 0 0 0 0 0 0 0 0 0 22 51 22 54 113 54 43 90 42 19 43 19 12 12 12 12 12 12 12 12 12 12 12 12 12 12 12 12 12 12 12 12 12 12 12 12 12 12 12 12 12 12 12 12 12 12 12 12 12 12 12 12 12 12 12 12 12 12 12 12 12 12 12 12 12 12 12 12 12 12 12 12 12 12 12 12 12 12 12 12 12 12 12 12 12 12 12 12 12 12 12 12 12 12 12 12 12 12 12 12 12 12 12 12 12 12 12 12 12 12 12 12 12 12 19 43 19 46 98 46 59 123 59 30 65 30 0 0 0 0 0 0 0 0 0 0 0 0 0 0 0 0 0 0 0 0 0 0 0 0 0 0 0 0 0 0 0 0 0 0 0 0 0 0 0 0 0 0 
0 0 0 0 0 0 0 0 0 0 0 0 0 0 0 0 0 0 0 0 0 0 0 0 0 0 0 0 0 0 0 0 0 0 0 0 0 0 0 0 0 0 0 0 0 34 66 21 64 118 48 49 101 49 36 76 35 20 35 20 19 19 19 19 19 19 19 19 19 19 19 19 19 19 19 19 19 19 19 19 19 19 19 19 19 19 19 19 19 19 19 19 19 19 19 19 19 19 19 19 19 19 19 19 19 19 19 19 19 19 19 19 19 19 19 19 19 19 19 19 19 19 19 19 19 19 19 19 19 19 19 19 19 19 19 19 19 19 19 19 19 19 19 19 19 19 19 19 19 19 20 35 20 36 76 35 54 113 54 60 123 54 36 76 35 12 12 12 4 11 2 0 0 0 0 0 0 0 0 0 0 0 0 0 0 0 0 0 0 0 0 0 0 0 0 0 0 0 0 0 0 0 0 0 0 0 0 0 0 0 
0 0 0 0 0 0 0 0 0 0 0 0 0 0 0 0 0 0 0 0 0 0 0 0 0 0 0 0 0 0 0 0 0 0 0 0 0 0 0 0 0 0 0 0 0 0 0 0 65 92 5 81 135 37 52 104 46 43 90 42 33 68 33 28 35 28 27 27 27 27 27 27 27 27 27 27 27 27 27 27 27 27 27 27 27 27 27 27 27 27 27 27 27 27 27 27 27 27 27 27 27 27 27 27 27 27 27 27 27 27 27 27 27 27 27 27 27 27 27 27 27 27 27 27 27 27 27 27 27 27 27 27 27 27 27 27 27 27 27 27 27 27 27 27 28 35 28 33 68 33 49 101 49 51 108 51 52 114 44 34 75 20 15 19 15 12 12 12 4 11 2 0 0 0 0 0 0 0 0 0 0 0 0 0 0 0 0 0 0 0 0 0 0 0 0 0 0 0 0 0 0 0 0 0 0 0 0 0 0 0 
0 0 0 0 0 0 0 0 0 0 0 0 0 0 0 0 0 0 0 0 0 0 0 0 0 0 0 0 0 0 0 0 0 0 0 0 0 0 0 0 0 0 0 0 0 0 0 0 0 0 0 70 101 6 100 149 18 70 125 34 43 90 42 36 76 35 35 58 35 28 35 28 34 35 34 34 35 34 34 35 34 34 35 34 34 35 34 34 35 34 34 35 34 34 35 34 34 35 34 34 35 34 34 35 34 34 35 34 34 35 34 34 35 34 34 35 34 34 35 34 34 35 34 34 35 34 34 35 34 34 35 34 34 35 34 34 35 34 34 35 34 33 68 33 41 86 41 46 98 46 45 103 38 46 113 23 44 84 26 19 19 19 19 19 19 12 12 12 12 12 12 0 0 0 0 0 0 0 0 0 0 0 0 0 0 0 0 0 0 0 0 0 0 0 0 0 0 0 0 0 0 0 0 0 0 0 0 0 0 0 
0 0 0 0 0 0 0 0 0 0 0 0 0 0 0 0 0 0 0 0 0 0 0 0 0 0 0 0 0 0 0 0 0 0 0 0 0 0 0 0 0 0 0 0 0 0 0 0 0 0 0 0 0 0 75 109 7 107 156 13 100 149 18 68 116 27 36 76 35 33 68 33 32 51 32 37 43 37 37 43 37 42 43 42 42 43 42 42 43 42 42 43 42 42 43 42 42 43 42 42 43 42 42 43 42 42 43 42 42 43 42 42 43 42 42 43 42 42 43 42 42 43 42 42 43 42 42 43 42 37 43 37 37 43 37 35 58 35 36 76 35 41 86 41 45 103 38 44 109 26 51 116 20 48 93 23 27 27 27 19 19 19 19 19 19 12 12 12 12 12 12 4 11 2 0 0 0 0 0 0 0 0 0 0 0 0 0 0 0 0 0 0 0 0 0 0 0 0 0 0 0 0 0 0 0 0 0 0 0 0 
0 0 0 0 0 0 0 0 0 0 0 0 0 0 0 0 0 0 0 0 0 0 0 0 0 0 0 0 0 0 0 0 0 0 0 0 0 0 0 0 0 0 0 0 0 0 0 0 0 0 0 0 0 0 0 0 0 79 118 9 107 156 13 102 153 14 89 143 16 64 107 26 38 74 25 28 54 28 32 51 32 42 43 42 51 51 51 51 51 51 51 51 51 51 51 51 51 51 51 51 51 51 51 51 51 51 51 51 51 51 51 51 51 51 51 51 51 51 51 51 51 51 51 51 51 51 44 50 44 35 58 35 33 68 33 36 76 35 40 88 36 44 109 26 51 116 20 55 120 20 57 103 27 32 34 31 27 27 27 27 27 27 19 19 19 19 19 19 12 12 12 4 11 2 0 0 0 0 0 0 0 0 0 0 0 0 0 0 0 0 0 0 0 0 0 0 0 0 0 0 0 0 0 0 0 0 0 0 0 0 
0 0 0 0 0 0 0 0 0 0 0 0 0 0 0 0 0 0 0 0 0 0 0 0 0 0 0 0 0 0 0 0 0 0 0 0 0 0 0 0 0 0 0 0 0 0 0 0 0 0 0 0 0 0 0 0 0 0 0 0 75 109 7 107 156 13 102 153 14 98 150 14 88 142 16 66 108 21 32 62 24 19 43 19 28 43 28 44 50 44 60 60 60 60 60 60 60 60 60 60 60 60 68 68 68 68 68 68 68 68 68 68 68 68 60 60 60 60 60 60 44 50 44 32 51 32 28 54 28 30 65 30 35 89 26 44 109 26 51 116 20 55 120 20 60 123 19 57 103 27 37 43 37 34 35 34 27 27 27 27 27 27 19 19 19 19 19 19 12 12 12 12 12 12 4 11 2 0 0 0 0 0 0 0 0 0 0 0 0 0 0 0 0 0 0 0 0 0 0 0 0 0 0 0 0 0 0 0 0 0 
0 0 0 0 0 0 0 0 0 0 0 0 0 0 0 0 0 0 0 0 0 0 0 0 0 0 0 0 0 0 0 0 0 0 0 0 0 0 0 0 0 0 0 0 0 0 0 0 0 0 0 0 0 0 0 0 0 0 0 0 0 0 0 75 109 7 107 156 13 102 153 14 98 150 14 93 146 15 84 140 16 66 108 21 34 66 21 20 35 20 12 28 12 37 43 37 60 60 60 68 68 68 76 76 76 76 76 76 76 76 76 60 60 60 37 43 37 20 35 20 19 43 19 27 58 22 35 89 26 42 110 22 51 116 20 55 120 20 60 123 19 69 129 18 67 106 35 42 43 42 37 43 37 34 35 34 27 27 27 27 27 27 27 27 27 19 19 19 12 12 12 12 12 12 4 11 2 0 0 0 0 0 0 0 0 0 0 0 0 0 0 0 0 0 0 0 0 0 0 0 0 0 0 0 0 0 0 0 0 0 
0 0 0 0 0 0 0 0 0 0 0 0 0 0 0 0 0 0 0 0 0 0 0 0 0 0 0 0 0 0 0 0 0 0 0 0 0 0 0 0 0 0 0 0 0 0 0 0 0 0 0 0 0 0 0 0 0 0 0 0 0 0 0 0 0 0 75 109 7 107 156 13 102 153 14 98 150 14 93 146 15 88 142 16 84 140 16 67 125 19 47 85 15 14 36 14 6 19 3 12 12 12 34 35 34 37 43 37 15 19 15 12 28 12 14 36 14 25 67 19 39 101 20 42 110 22 51 116 20 55 120 20 60 123 19 69 129 18 75 134 17 67 106 35 51 51 51 42 43 42 42 43 42 34 35 34 34 35 34 27 27 27 27 27 27 19 19 19 19 19 19 12 12 12 4 11 2 0 0 0 0 0 0 0 0 0 0 0 0 0 0 0 0 0 0 0 0 0 0 0 0 0 0 0 0 0 0 0 0 0 
0 0 0 0 0 0 0 0 0 0 0 0 0 0 0 0 0 0 0 0 0 0 0 0 0 0 0 0 0 0 0 0 0 0 0 0 0 0 0 0 0 0 0 0 0 0 0 0 0 0 0 0 0 0 0 0 0 0 0 0 0 0 0 0 0 0 0 0 0 70 101 6 107 156 13 102 153 14 98 150 14 93 146 15 89 143 16 84 140 16 81 134 18 69 129 18 58 101 11 36 76 12 9 28 2 7 24 1 26 56 8 29 85 18 39 101 20 46 113 23 51 116 20 55 120 20 60 123 19 69 129 18 75 134 17 84 140 16 75 108 45 60 60 60 51 51 51 42 43 42 42 43 42 34 35 34 34 35 34 27 27 27 27 27 27 19 19 19 19 19 19 12 12 12 12 12 12 0 0 0 0 0 0 0 0 0 0 0 0 0 0 0 0 0 0 0 0 0 0 0 0 0 0 0 0 0 0 0 0 0 
0 0 0 0 0 0 0 0 0 0 0 0 0 0 0 0 0 0 0 0 0 0 0 0 0 0 0 0 0 0 0 0 0 0 0 0 0 0 0 0 0 0 0 0 0 0 0 0 0 0 0 0 0 0 0 0 0 0 0 0 0 0 0 0 0 0 0 0 0 0 0 0 59 87 5 107 156 13 102 153 14 98 150 14 93 146 15 91 144 19 84 140 16 84 140 16 79 136 17 75 134 17 67 125 19 42 110 22 42 110 22 46 113 23 51 116 20 55 120 20 60 123 19 69 129 18 75 134 17 84 140 16 88 142 16 80 105 55 68 68 68 60 60 60 51 51 51 42 43 42 42 43 42 37 43 37 34 35 34 27 27 27 27 27 27 19 19 19 19 19 19 12 12 12 12 12 12 4 11 2 0 0 0 0 0 0 0 0 0 0 0 0 0 0 0 0 0 0 0 0 0 0 0 0 0 0 0 0 0 0 
0 0 0 0 0 0 0 0 0 0 0 0 0 0 0 0 0 0 0 0 0 0 0 0 0 0 0 0 0 0 0 0 0 0 0 0 0 0 0 0 0 0 0 0 0 0 0 0 0 0 0 0 0 0 0 0 0 0 0 0 0 0 0 0 0 0 0 0 0 0 0 0 0 0 0 53 75 3 105 148 12 102 153 14 98 150 14 93 146 15 93 146 15 88 142 16 84 140 16 79 136 17 75 134 17 51 116 20 55 120 20 60 123 19 60 123 19 69 129 18 75 134 17 84 140 16 88 142 16 91 144 19 86 106 66 76 76 76 68 68 68 60 60 60 51 51 51 51 51 51 42 43 42 37 43 37 34 35 34 27 27 27 27 27 27 27 27 27 19 19 19 12 12 12 12 12 12 4 11 2 0 0 0 0 0 0 0 0 0 0 0 0 0 0 0 0 0 0 0 0 0 0 0 0 0 0 0 0 0 0 
0 0 0 0 0 0 0 0 0 0 0 0 0 0 0 0 0 0 0 0 0 0 0 0 0 0 0 0 0 0 0 0 0 0 0 0 0 0 0 0 0 0 0 0 0 0 0 0 0 0 0 0 0 0 0 0 0 0 0 0 0 0 0 0 0 0 0 0 0 0 0 0 0 0 0 0 0 0 36 52 1 97 139 11 107 156 13 98 150 14 93 146 15 93 146 15 88 142 16 84 140 16 79 136 17 60 123 19 67 125 19 69 129 18 75 134 17 84 140 16 88 142 16 93 146 15 103 147 40 93 106 81 85 85 85 76 76 76 68 68 68 60 60 60 60 60 60 51 51 51 42 43 42 37 43 37 34 35 34 27 27 27 27 27 27 27 27 27 19 19 19 12 12 12 12 12 12 4 11 2 0 0 0 0 0 0 0 0 0 0 0 0 0 0 0 0 0 0 0 0 0 0 0 0 0 0 0 0 0 0 
0 0 0 0 0 0 0 0 0 0 0 0 0 0 0 0 0 0 0 0 0 0 0 0 0 0 0 0 0 0 0 0 0 0 0 0 0 0 0 0 0 0 0 0 0 0 0 0 0 0 0 0 0 0 0 0 0 0 0 0 0 0 0 0 0 0 0 0 0 0 0 0 0 0 0 0 0 0 0 0 0 19 34 6 90 132 10 107 156 13 102 153 14 98 150 14 93 146 15 88 142 16 84 140 16 75 134 17 79 136 17 84 140 16 89 143 16 93 146 15 102 153 14 103 147 40 102 108 95 94 94 94 85 85 85 76 76 76 68 68 68 60 60 60 60 60 60 51 51 51 42 43 42 37 43 37 34 35 34 27 27 27 27 27 27 27 27 27 19 19 19 12 12 12 12 12 12 4 11 2 0 0 0 0 0 0 0 0 0 0 0 0 0 0 0 0 0 0 0 0 0 0 0 0 0 0 0 0 0 0 
0 0 0 0 0 0 0 0 0 0 0 0 0 0 0 0 0 0 0 0 0 0 0 0 0 0 0 0 0 0 0 0 0 0 0 0 0 0 0 0 0 0 0 0 0 0 0 0 0 0 0 0 0 0 0 0 0 0 0 0 0 0 0 0 0 0 0 0 0 0 0 0 0 0 0 0 0 0 0 0 0 0 0 0 66 108 21 108 156 13 107 156 13 102 153 14 98 150 14 93 146 15 89 143 16 88 142 16 93 146 15 93 146 15 102 153 14 108 156 13 116 162 12 86 111 45 99 100 99 94 94 94 85 85 85 76 76 76 68 68 68 60 60 60 60 60 60 51 51 51 42 43 42 42 43 42 34 35 34 27 27 27 27 27 27 27 27 27 19 19 19 12 12 12 12 12 12 4 11 2 0 0 0 0 0 0 0 0 0 0 0 0 0 0 0 0 0 0 0 0 0 0 0 0 0 0 0 0 0 0 
0 0 0 0 0 0 0 0 0 0 0 0 0 0 0 0 0 0 0 0 0 0 0 0 0 0 0 0 0 0 0 0 0 0 0 0 0 0 0 0 0 0 0 0 0 0 0 0 0 0 0 0 0 0 0 0 0 0 0 0 0 0 0 0 0 0 0 0 0 0 0 0 0 0 0 0 0 0 0 0 0 27 59 27 71 121 24 116 162 12 112 158 12 107 156 13 102 153 14 98 150 14 93 146 15 98 150 14 102 153 14 108 156 13 116 162 12 122 165 11 132 172 10 85 115 6 60 60 60 94 94 94 85 85 85 76 76 76 68 68 68 60 60 60 60 60 60 51 51 51 42 43 42 42 43 42 34 35 34 34 35 34 27 27 27 27 27 27 19 19 19 12 12 12 12 12 12 4 11 2 0 0 0 0 0 0 0 0 0 0 0 0 0 0 0 0 0 0 0 0 0 0 0 0 0 0 0 0 0 0 
0 0 0 0 0 0 0 0 0 0 0 0 0 0 0 0 0 0 0 0 0 0 0 0 0 0 0 0 0 0 0 0 0 0 0 0 0 0 0 0 0 0 0 0 0 0 0 0 0 0 0 0 0 0 0 0 0 0 0 0 0 0 0 0 0 0 0 0 0 0 0 0 0 0 0 0 0 0 19 43 19 43 90 42 81 134 18 116 162 12 116 162 12 112 158 12 108 156 13 102 153 14 98 150 14 108 156 13 116 162 12 122 165 11 132 172 10 132 172 10 136 175 9 105 148 12 17 44 11 68 68 68 85 85 85 76 76 76 68 68 68 60 60 60 60 60 60 51 51 51 42 43 42 42 43 42 34 35 34 34 35 34 27 27 27 27 27 27 19 19 19 19 19 19 12 12 12 4 11 2 0 0 0 0 0 0 0 0 0 0 0 0 0 0 0 0 0 0 0 0 0 0 0 0 0 0 0 0 0 0 
0 0 0 0 0 0 0 0 0 0 0 0 0 0 0 0 0 0 0 0 0 0 0 0 0 0 0 0 0 0 0 0 0 0 0 0 0 0 0 0 0 0 0 0 0 0 0 0 0 0 0 0 0 0 0 0 0 0 0 0 0 0 0 0 0 0 0 0 0 0 0 0 0 0 0 12 28 12 43 90 42 44 109 26 84 140 16 122 165 11 116 162 12 116 162 12 108 156 13 108 156 13 107 156 13 122 165 11 132 172 10 132 172 10 132 172 10 136 175 9 136 175 9 112 158 12 39 101 20 17 26 16 76 76 76 76 76 76 68 68 68 60 60 60 51 51 51 51 51 51 42 43 42 42 43 42 34 35 34 34 35 34 27 27 27 27 27 27 19 19 19 19 19 19 12 12 12 12 12 12 0 0 0 0 0 0 0 0 0 0 0 0 0 0 0 0 0 0 0 0 0 0 0 0 0 0 0 0 0 0 
0 0 0 0 0 0 0 0 0 0 0 0 0 0 0 0 0 0 0 0 0 0 0 0 0 0 0 0 0 0 0 0 0 0 0 0 0 0 0 0 0 0 0 0 0 0 0 0 0 0 0 0 0 0 0 0 0 0 0 0 0 0 0 0 0 0 0 0 0 0 0 0 4 11 2 41 86 41 45 103 38 60 123 19 93 146 15 122 165 11 116 162 12 116 162 12 108 156 13 108 156 13 107 156 13 126 169 10 132 172 10 132 172 10 132 172 10 136 175 9 139 178 9 116 162 12 60 123 19 36 76 12 28 35 28 68 68 68 68 68 68 60 60 60 51 51 51 51 51 51 42 43 42 42 43 42 34 35 34 34 35 34 27 27 27 27 27 27 19 19 19 19 19 19 12 12 12 12 12 12 0 0 0 0 0 0 0 0 0 0 0 0 0 0 0 0 0 0 0 0 0 0 0 0 0 0 0 0 0 0 
0 0 0 0 0 0 0 0 0 0 0 0 0 0 0 0 0 0 0 0 0 0 0 0 0 0 0 0 0 0 0 0 0 0 0 0 0 0 0 0 0 0 0 0 0 0 0 0 0 0 0 0 0 0 0 0 0 0 0 0 0 0 0 0 0 0 0 0 0 0 0 0 36 76 35 45 103 38 55 120 20 69 129 18 98 150 14 122 165 11 116 162 12 116 162 12 112 158 12 108 156 13 90 132 10 105 138 7 132 172 10 132 172 10 136 175 9 136 175 9 139 178 9 122 165 11 79 136 17 60 123 19 26 56 8 42 43 42 68 68 68 60 60 60 51 51 51 51 51 51 42 43 42 42 43 42 34 35 34 34 35 34 27 27 27 27 27 27 19 19 19 19 19 19 12 12 12 12 12 12 0 0 0 0 0 0 0 0 0 0 0 0 0 0 0 0 0 0 0 0 0 0 0 0 0 0 0 0 0 0 
0 0 0 0 0 0 0 0 0 0 0 0 0 0 0 0 0 0 0 0 0 0 0 0 0 0 0 0 0 0 0 0 0 0 0 0 0 0 0 0 0 0 0 0 0 0 0 0 0 0 0 0 0 0 0 0 0 0 0 0 0 0 0 0 0 0 0 0 0 27 59 27 52 104 46 57 117 25 69 129 18 84 140 16 107 156 13 122 165 11 116 162 12 116 162 12 108 156 13 79 118 9 4 11 2 4 11 2 91 123 6 132 172 10 136 175 9 139 178 9 139 178 9 132 172 10 93 146 15 75 134 17 51 116 20 17 44 11 51 51 51 60 60 60 51 51 51 51 51 51 42 43 42 42 43 42 34 35 34 34 35 34 27 27 27 27 27 27 19 19 19 19 19 19 12 12 12 12 12 12 0 0 0 0 0 0 0 0 0 0 0 0 0 0 0 0 0 0 0 0 0 0 0 0 0 0 0 0 0 0 
0 0 0 0 0 0 0 0 0 0 0 0 0 0 0 0 0 0 0 0 0 0 0 0 0 0 0 0 0 0 0 0 0 0 0 0 0 0 0 0 0 0 0 0 0 0 0 0 0 0 0 0 0 0 0 0 0 0 0 0 0 0 0 0 0 0 19 43 19 49 101 49 57 117 25 69 129 18 81 134 18 93 146 15 116 162 12 122 165 11 116 162 12 112 158 12 65 92 5 0 0 0 0 0 0 0 0 0 0 0 0 70 101 6 134 168 7 139 178 9 139 178 9 136 175 9 108 156 13 88 142 16 69 129 18 52 105 19 20 35 20 51 51 51 51 51 51 51 51 51 42 43 42 42 43 42 34 35 34 34 35 34 27 27 27 27 27 27 19 19 19 19 19 19 12 12 12 12 12 12 0 0 0 0 0 0 0 0 0 0 0 0 0 0 0 0 0 0 0 0 0 0 0 0 0 0 0 0 0 0 
0 0 0 0 0 0 0 0 0 0 0 0 0 0 0 0 0 0 0 0 0 0 0 0 0 0 0 0 0 0 0 0 0 0 0 0 0 0 0 0 0 0 0 0 0 0 0 0 0 0 0 0 0 0 0 0 0 0 0 0 0 0 0 6 19 3 46 98 46 52 114 44 69 129 18 79 136 17 93 146 15 108 156 13 122 165 11 122 165 11 112 158 12 53 75 3 0 0 0 0 0 0 0 0 0 0 0 0 0 0 0 0 0 0 53 75 3 122 165 11 139 178 9 139 178 9 126 169 10 102 153 14 84 140 16 69 129 18 43 90 21 28 35 28 51 51 51 42 43 42 42 43 42 37 43 37 34 35 34 34 35 34 27 27 27 27 27 27 19 19 19 19 19 19 12 12 12 12 12 12 0 0 0 0 0 0 0 0 0 0 0 0 0 0 0 0 0 0 0 0 0 0 0 0 0 0 0 0 0 0 
0 0 0 0 0 0 0 0 0 0 0 0 0 0 0 0 0 0 0 0 0 0 0 0 0 0 0 0 0 0 0 0 0 0 0 0 0 0 0 0 0 0 0 0 0 0 0 0 0 0 0 0 0 0 0 0 0 0 0 0 0 0 0 43 90 42 52 114 44 67 125 19 79 136 17 93 146 15 107 156 13 122 165 11 132 172 10 105 148 12 30 46 2 0 0 0 0 0 0 0 0 0 0 0 0 0 0 0 0 0 0 0 0 0 0 0 0 36 52 1 122 155 7 152 186 7 139 178 9 116 162 12 102 153 14 84 140 16 67 125 19 34 75 20 28 43 28 42 43 42 42 43 42 37 43 37 34 35 34 27 27 27 27 27 27 27 27 27 19 19 19 12 12 12 12 12 12 4 11 2 0 0 0 0 0 0 0 0 0 0 0 0 0 0 0 0 0 0 0 0 0 0 0 0 0 0 0 0 0 0 
0 0 0 0 0 0 0 0 0 0 0 0 0 0 0 0 0 0 0 0 0 0 0 0 0 0 0 0 0 0 0 0 0 0 0 0 0 0 0 0 0 0 0 0 0 0 0 0 0 0 0 0 0 0 0 0 0 0 0 0 36 76 35 56 116 53 67 125 19 79 136 17 93 146 15 102 153 14 122 165 11 139 178 9 105 138 7 12 21 1 0 0 0 0 0 0 0 0 0 0 0 0 0 0 0 0 0 0 0 0 0 0 0 0 0 0 0 0 0 0 9 15 0 117 142 4 152 186 7 136 175 9 116 162 12 98 150 14 84 140 16 67 125 19 27 58 22 37 43 37 42 43 42 34 35 34 34 35 34 27 27 27 27 27 27 27 27 27 19 19 19 12 12 12 12 12 12 4 11 2 0 0 0 0 0 0 0 0 0 0 0 0 0 0 0 0 0 0 0 0 0 0 0 0 0 0 0 0 0 0 
0 0 0 0 0 0 0 0 0 0 0 0 0 0 0 0 0 0 0 0 0 0 0 0 0 0 0 0 0 0 0 0 0 0 0 0 0 0 0 0 0 0 0 0 0 0 0 0 0 0 0 0 0 0 0 0 0 27 59 27 56 116 53 71 121 24 79 136 17 93 146 15 102 153 14 116 162 12 132 172 10 85 115 6 0 0 0 0 0 0 0 0 0 0 0 0 0 0 0 0 0 0 0 0 0 0 0 0 0 0 0 0 0 0 0 0 0 0 0 0 0 0 0 0 0 0 98 122 4 152 186 7 132 172 10 108 156 13 93 146 15 79 136 17 55 120 20 22 51 22 37 43 37 34 35 34 34 35 34 27 27 27 27 27 27 19 19 19 19 19 19 12 12 12 12 12 12 4 11 2 0 0 0 0 0 0 0 0 0 0 0 0 0 0 0 0 0 0 0 0 0 0 0 0 0 0 0 0 0 0 
0 0 0 0 0 0 0 0 0 0 0 0 0 0 0 0 0 0 0 0 0 0 0 0 0 0 0 0 0 0 0 0 0 0 0 0 0 0 0 0 0 0 0 0 0 0 0 0 0 0 0 0 0 0 19 43 19 54 113 54 70 125 34 79 136 17 89 143 16 102 153 14 116 162 12 122 165 11 70 88 2 0 0 0 0 0 0 0 0 0 0 0 0 0 0 0 0 0 0 0 0 0 0 0 0 0 0 0 0 0 0 0 0 0 0 0 0 0 0 0 0 0 0 0 0 0 0 0 0 70 88 2 134 168 7 126 169 10 108 156 13 93 146 15 79 136 17 52 105 19 28 54 28 34 35 34 34 35 34 27 27 27 27 27 27 19 19 19 19 19 19 12 12 12 12 12 12 4 11 2 0 0 0 0 0 0 0 0 0 0 0 0 0 0 0 0 0 0 0 0 0 0 0 0 0 0 0 0 0 0 
0 0 0 0 0 0 0 0 0 0 0 0 0 0 0 0 0 0 0 0 0 0 0 0 0 0 0 0 0 0 0 0 0 0 0 0 0 0 0 0 0 0 0 0 0 0 0 0 0 0 0 6 19 3 51 108 51 60 123 54 79 136 17 88 142 16 102 153 14 116 162 12 105 138 7 36 52 1 0 0 0 0 0 0 0 0 0 0 0 0 0 0 0 0 0 0 0 0 0 0 0 0 0 0 0 0 0 0 0 0 0 0 0 0 0 0 0 0 0 0 0 0 0 0 0 0 0 0 0 0 0 0 42 57 2 122 155 7 122 165 11 107 156 13 93 146 15 75 134 17 48 93 23 28 54 28 28 35 28 27 27 27 27 27 27 19 19 19 19 19 19 12 12 12 12 12 12 4 11 2 0 0 0 0 0 0 0 0 0 0 0 0 0 0 0 0 0 0 0 0 0 0 0 0 0 0 0 0 0 0 
0 0 0 0 0 0 0 0 0 0 0 0 0 0 0 0 0 0 0 0 0 0 0 0 0 0 0 0 0 0 0 0 0 0 0 0 0 0 0 0 0 0 0 0 0 0 0 0 0 0 0 49 101 49 60 123 54 75 134 17 88 142 16 98 150 14 112 158 12 91 123 6 9 15 0 0 0 0 0 0 0 0 0 0 0 0 0 0 0 0 0 0 0 0 0 0 0 0 0 0 0 0 0 0 0 0 0 0 0 0 0 0 0 0 0 0 0 0 0 0 0 0 0 0 0 0 0 0 0 0 0 0 0 0 0 16 23 0 98 122 4 122 165 11 102 153 14 89 143 16 75 134 17 44 84 26 28 54 28 27 27 27 27 27 27 19 19 19 19 19 19 12 12 12 12 12 12 0 0 0 0 0 0 0 0 0 0 0 0 0 0 0 0 0 0 0 0 0 0 0 0 0 0 0 0 0 0 0 0 0 
0 0 0 0 0 0 0 0 0 0 0 0 0 0 0 0 0 0 0 0 0 0 0 0 0 0 0 0 0 0 0 0 0 0 0 0 0 0 0 0 0 0 0 0 0 0 0 0 41 86 41 62 128 60 76 134 28 88 142 16 98 150 14 107 156 13 65 92 5 0 0 0 0 0 0 0 0 0 0 0 0 0 0 0 0 0 0 0 0 0 0 0 0 0 0 0 0 0 0 0 0 0 0 0 0 0 0 0 0 0 0 0 0 0 0 0 0 0 0 0 0 0 0 0 0 0 0 0 0 0 0 0 0 0 0 0 0 0 0 0 0 65 92 5 108 156 13 102 153 14 88 142 16 69 129 18 38 74 25 28 54 28 19 19 19 19 19 19 12 12 12 12 12 12 12 12 12 0 0 0 0 0 0 0 0 0 0 0 0 0 0 0 0 0 0 0 0 0 0 0 0 0 0 0 0 0 0 0 0 0 
0 0 0 0 0 0 0 0 0 0 0 0 0 0 0 0 0 0 0 0 0 0 0 0 0 0 0 0 0 0 0 0 0 0 0 0 0 0 0 0 0 0 0 0 0 36 76 35 62 128 60 76 134 28 88 142 16 98 150 14 93 140 13 42 57 2 0 0 0 0 0 0 0 0 0 0 0 0 0 0 0 0 0 0 0 0 0 0 0 0 0 0 0 0 0 0 0 0 0 0 0 0 0 0 0 0 0 0 0 0 0 0 0 0 0 0 0 0 0 0 0 0 0 0 0 0 0 0 0 0 0 0 0 0 0 0 0 0 0 0 0 0 0 0 36 52 1 97 139 11 102 153 14 88 142 16 67 125 19 36 76 35 28 43 28 19 19 19 12 12 12 12 12 12 4 11 2 0 0 0 0 0 0 0 0 0 0 0 0 0 0 0 0 0 0 0 0 0 0 0 0 0 0 0 0 0 0 0 0 0 
0 0 0 0 0 0 0 0 0 0 0 0 0 0 0 0 0 0 0 0 0 0 0 0 0 0 0 0 0 0 0 0 0 0 0 0 0 0 0 0 0 0 27 59 27 62 128 60 81 135 37 88 142 16 98 150 14 79 118 9 12 21 1 0 0 0 0 0 0 0 0 0 0 0 0 0 0 0 0 0 0 0 0 0 0 0 0 0 0 0 0 0 0 0 0 0 0 0 0 0 0 0 0 0 0 0 0 0 0 0 0 0 0 0 0 0 0 0 0 0 0 0 0 0 0 0 0 0 0 0 0 0 0 0 0 0 0 0 0 0 0 0 0 0 0 0 0 9 15 0 75 109 7 98 150 14 88 142 16 68 116 27 36 76 35 20 35 20 12 12 12 12 12 12 4 11 2 0 0 0 0 0 0 0 0 0 0 0 0 0 0 0 0 0 0 0 0 0 0 0 0 0 0 0 0 0 0 0 0 0 
0 0 0 0 0 0 0 0 0 0 0 0 0 0 0 0 0 0 0 0 0 0 0 0 0 0 0 0 0 0 0 0 0 0 0 0 0 0 0 19 43 19 59 123 59 73 138 51 88 142 16 93 140 13 59 87 5 0 0 0 0 0 0 0 0 0 0 0 0 0 0 0 0 0 0 0 0 0 0 0 0 0 0 0 0 0 0 0 0 0 0 0 0 0 0 0 0 0 0 0 0 0 0 0 0 0 0 0 0 0 0 0 0 0 0 0 0 0 0 0 0 0 0 0 0 0 0 0 0 0 0 0 0 0 0 0 0 0 0 0 0 0 0 0 0 0 0 0 0 0 0 0 0 53 75 3 93 140 13 84 140 16 57 103 27 36 76 35 20 35 20 12 12 12 4 11 2 0 0 0 0 0 0 0 0 0 0 0 0 0 0 0 0 0 0 0 0 0 0 0 0 0 0 0 0 0 0 0 0 0 
0 0 0 0 0 0 0 0 0 0 0 0 0 0 0 0 0 0 0 0 0 0 0 0 0 0 0 0 0 0 0 0 0 0 0 0 12 28 12 59 123 59 73 138 51 88 142 16 83 129 12 36 52 1 0 0 0 0 0 0 0 0 0 0 0 0 0 0 0 0 0 0 0 0 0 0 0 0 0 0 0 0 0 0 0 0 0 0 0 0 0 0 0 0 0 0 0 0 0 0 0 0 0 0 0 0 0 0 0 0 0 0 0 0 0 0 0 0 0 0 0 0 0 0 0 0 0 0 0 0 0 0 0 0 0 0 0 0 0 0 0 0 0 0 0 0 0 0 0 0 0 0 0 0 0 0 30 46 2 79 118 9 84 140 16 54 106 39 41 86 41 12 28 12 0 0 0 0 0 0 0 0 0 0 0 0 0 0 0 0 0 0 0 0 0 0 0 0 0 0 0 0 0 0 0 0 0 0 0 0 
0 0 0 0 0 0 0 0 0 0 0 0 0 0 0 0 0 0 0 0 0 0 0 0 0 0 0 0 0 0 0 0 0 4 11 2 56 116 53 72 141 60 84 140 16 70 101 6 6 19 3 0 0 0 0 0 0 0 0 0 0 0 0 0 0 0 0 0 0 0 0 0 0 0 0 0 0 0 0 0 0 0 0 0 0 0 0 0 0 0 0 0 0 0 0 0 0 0 0 0 0 0 0 0 0 0 0 0 0 0 0 0 0 0 0 0 0 0 0 0 0 0 0 0 0 0 0 0 0 0 0 0 0 0 0 0 0 0 0 0 0 0 0 0 0 0 0 0 0 0 0 0 0 0 0 0 0 0 0 4 11 2 58 101 11 81 134 18 54 106 39 41 86 41 9 15 0 0 0 0 0 0 0 0 0 0 0 0 0 0 0 0 0 0 0 0 0 0 0 0 0 0 0 0 0 0 0 0 0 0 
0 0 0 0 0 0 0 0 0 0 0 0 0 0 0 0 0 0 0 0 0 0 0 0 0 0 0 0 0 0 4 11 2 54 113 54 72 141 60 71 121 24 30 46 2 0 0 0 0 0 0 0 0 0 0 0 0 0 0 0 0 0 0 0 0 0 0 0 0 0 0 0 0 0 0 0 0 0 0 0 0 0 0 0 0 0 0 0 0 0 0 0 0 0 0 0 0 0 0 0 0 0 0 0 0 0 0 0 0 0 0 0 0 0 0 0 0 0 0 0 0 0 0 0 0 0 0 0 0 0 0 0 0 0 0 0 0 0 0 0 0 0 0 0 0 0 0 0 0 0 0 0 0 0 0 0 0 0 0 0 0 0 0 0 0 30 46 2 66 108 21 52 114 44 43 90 42 4 11 2 0 0 0 0 0 0 0 0 0 0 0 0 0 0 0 0 0 0 0 0 0 0 0 0 0 0 0 0 0 0 
0 0 0 0 0 0 0 0 0 0 0 0 0 0 0 0 0 0 0 0 0 0 0 0 0 0 0 4 11 2 54 113 54 66 136 64 44 84 26 4 11 2 0 0 0 0 0 0 0 0 0 0 0 0 0 0 0 0 0 0 0 0 0 0 0 0 0 0 0 0 0 0 0 0 0 0 0 0 0 0 0 0 0 0 0 0 0 0 0 0 0 0 0 0 0 0 0 0 0 0 0 0 0 0 0 0 0 0 0 0 0 0 0 0 0 0 0 0 0 0 0 0 0 0 0 0 0 0 0 0 0 0 0 0 0 0 0 0 0 0 0 0 0 0 0 0 0 0 0 0 0 0 0 0 0 0 0 0 0 0 0 0 0 0 0 0 0 0 0 0 0 47 85 15 54 113 54 46 98 46 4 11 2 0 0 0 0 0 0 0 0 0 0 0 0 0 0 0 0 0 0 0 0 0 0 0 0 0 0 0 
0 0 0 0 0 0 0 0 0 0 0 0 0 0 0 0 0 0 0 0 0 0 0 0 4 11 2 51 108 51 51 108 51 14 36 14 0 0 0 0 0 0 0 0 0 0 0 0 0 0 0 0 0 0 0 0 0 0 0 0 0 0 0 0 0 0 0 0 0 0 0 0 0 0 0 0 0 0 0 0 0 0 0 0 0 0 0 0 0 0 0 0 0 0 0 0 0 0 0 0 0 0 0 0 0 0 0 0 0 0 0 0 0 0 0 0 0 0 0 0 0 0 0 0 0 0 0 0 0 0 0 0 0 0 0 0 0 0 0 0 0 0 0 0 0 0 0 0 0 0 0 0 0 0 0 0 0 0 0 0 0 0 0 0 0 0 0 0 0 0 0 0 0 0 12 28 12 43 90 42 46 98 46 4 11 2 0 0 0 0 0 0 0 0 0 0 0 0 0 0 0 0 0 0 0 0 0 0 0 0 
0 0 0 0 0 0 0 0 0 0 0 0 0 0 0 0 0 0 0 0 0 0 0 0 30 65 30 22 51 22 0 0 0 0 0 0 0 0 0 0 0 0 0 0 0 0 0 0 0 0 0 0 0 0 0 0 0 0 0 0 0 0 0 0 0 0 0 0 0 0 0 0 0 0 0 0 0 0 0 0 0 0 0 0 0 0 0 0 0 0 0 0 0 0 0 0 0 0 0 0 0 0 0 0 0 0 0 0 0 0 0 0 0 0 0 0 0 0 0 0 0 0 0 0 0 0 0 0 0 0 0 0 0 0 0 0 0 0 0 0 0 0 0 0 0 0 0 0 0 0 0 0 0 0 0 0 0 0 0 0 0 0 0 0 0 0 0 0 0 0 0 0 0 0 0 0 0 0 0 0 19 43 19 30 65 30 0 0 0 0 0 0 0 0 0 0 0 0 0 0 0 0 0 0 0 0 0 0 0 0 
0 0 0 0 0 0 0 0 0 0 0 0 0 0 0 0 0 0 0 0 0 0 0 0 0 0 0 0 0 0 0 0 0 0 0 0 0 0 0 0 0 0 0 0 0 0 0 0 0 0 0 0 0 0 0 0 0 0 0 0 0 0 0 0 0 0 0 0 0 0 0 0 0 0 0 0 0 0 0 0 0 0 0 0 0 0 0 0 0 0 0 0 0 0 0 0 0 0 0 0 0 0 0 0 0 0 0 0 0 0 0 0 0 0 0 0 0 0 0 0 0 0 0 0 0 0 0 0 0 0 0 0 0 0 0 0 0 0 0 0 0 0 0 0 0 0 0 0 0 0 0 0 0 0 0 0 0 0 0 0 0 0 0 0 0 0 0 0 0 0 0 0 0 0 0 0 0 0 0 0 0 0 0 0 0 0 0 0 0 0 0 0 0 0 0 0 0 0 0 0 0 0 0 0 0 0 0 0 0 0 
0 0 0 0 0 0 0 0 0 0 0 0 0 0 0 0 0 0 0 0 0 0 0 0 0 0 0 0 0 0 0 0 0 0 0 0 0 0 0 0 0 0 0 0 0 0 0 0 0 0 0 0 0 0 0 0 0 0 0 0 0 0 0 0 0 0 0 0 0 0 0 0 0 0 0 0 0 0 0 0 0 0 0 0 0 0 0 0 0 0 0 0 0 0 0 0 0 0 0 0 0 0 0 0 0 0 0 0 0 0 0 0 0 0 0 0 0 0 0 0 0 0 0 0 0 0 0 0 0 0 0 0 0 0 0 0 0 0 0 0 0 0 0 0 0 0 0 0 0 0 0 0 0 0 0 0 0 0 0 0 0 0 0 0 0 0 0 0 0 0 0 0 0 0 0 0 0 0 0 0 0 0 0 0 0 0 0 0 0 0 0 0 0 0 0 0 0 0 0 0 0 0 0 0 0 0 0 0 0 0 
0 0 0 0 0 0 0 0 0 0 0 0 0 0 0 0 0 0 0 0 0 0 0 0 0 0 0 0 0 0 0 0 0 0 0 0 0 0 0 0 0 0 0 0 0 0 0 0 0 0 0 0 0 0 0 0 0 0 0 0 0 0 0 0 0 0 0 0 0 0 0 0 0 0 0 0 0 0 0 0 0 0 0 0 0 0 0 0 0 0 0 0 0 0 0 0 0 0 0 0 0 0 0 0 0 0 0 0 0 0 0 0 0 0 0 0 0 0 0 0 0 0 0 0 0 0 0 0 0 0 0 0 0 0 0 0 0 0 0 0 0 0 0 0 0 0 0 0 0 0 0 0 0 0 0 0 0 0 0 0 0 0 0 0 0 0 0 0 0 0 0 0 0 0 0 0 0 0 0 0 0 0 0 0 0 0 0 0 0 0 0 0 0 0 0 0 0 0 0 0 0 0 0 0 0 0 0 0 0 0 
0 0 0 0 0 0 0 0 0 0 0 0 0 0 0 0 0 0 0 0 0 0 0 0 0 0 0 0 0 0 0 0 0 0 0 0 0 0 0 0 0 0 0 0 0 0 0 0 0 0 0 0 0 0 0 0 0 0 0 0 0 0 0 0 0 0 0 0 0 0 0 0 0 0 0 0 0 0 0 0 0 0 0 0 0 0 0 0 0 0 0 0 0 0 0 0 0 0 0 0 0 0 0 0 0 0 0 0 0 0 0 0 0 0 0 0 0 0 0 0 0 0 0 0 0 0 0 0 0 0 0 0 0 0 0 0 0 0 0 0 0 0 0 0 0 0 0 0 0 0 0 0 0 0 0 0 0 0 0 0 0 0 0 0 0 0 0 0 0 0 0 0 0 0 0 0 0 0 0 0 0 0 0 0 0 0 0 0 0 0 0 0 0 0 0 0 0 0 0 0 0 0 0 0 0 0 0 0 0 0 
0 0 0 26 61 3 34 77 4 34 77 4 13 36 1 0 0 0 0 0 0 0 0 0 0 0 0 0 0 0 0 0 0 0 0 0 0 0 0 0 0 0 9 28 2 34 77 4 34 77 4 29 68 3 0 0 0 0 0 0 26 61 3 56 119 8 56 119 8 56 119 8 56 119 8 56 119 8 56 119 8 56 119 8 56 119 8 56 119 8 56 119 8 56 119 8 29 68 3 0 0 0 0 0 0 0 0 0 0 0 0 17 44 2 52 112 7 52 112 7 52 112 7 56 119 8 56 119 8 56 119 8 56 119 8 56 119 8 56 119 8 56 119 8 56 119 8 34 77 4 0 0 0 0 0 0 26 61 3 50 107 7 50 107 7 17 44 2 0 0 0 0 0 0 0 0 0 0 0 0 0 0 0 0 0 0 0 0 0 0 0 0 0 0 0 4 11 2 34 77 4 34 77 4 34 77 4 0 0 0 
0 0 0 34 77 4 86 180 17 96 199 19 86 180 17 29 68 3 0 0 0 0 0 0 0 0 0 0 0 0 0 0 0 0 0 0 0 0 0 34 77 4 86 180 17 96 199 19 86 180 17 34 77 4 0 0 0 6 19 3 84 174 16 96 199 19 96 199 19 96 199 19 96 199 19 96 199 19 96 199 19 96 199 19 96 199 19 96 199 19 96 199 19 96 199 19 86 180 17 9 28 2 0 0 0 0 0 0 0 0 0 78 163 14 96 199 19 96 199 19 96 199 19 96 199 19 96 199 19 96 199 19 96 199 19 96 199 19 96 199 19 96 199 19 96 199 19 86 180 17 9 28 2 0 0 0 29 68 3 81 169 15 96 199 19 88 183 17 38 84 4 0 0 0 0 0 0 0 0 0 0 0 0 0 0 0 0 0 0 0 0 0 13 36 1 78 163 14 96 199 19 90 188 18 52 112 7 0 0 0 
0 0 0 0 0 0 17 44 2 81 169 15 96 199 19 90 188 18 42 92 5 0 0 0 0 0 0 0 0 0 0 0 0 0 0 0 55 117 8 93 194 18 96 199 19 70 147 12 9 28 2 0 0 0 0 0 0 56 119 8 96 199 19 84 174 16 57 123 8 57 123 8 57 123 8 57 123 8 57 123 8 57 123 8 57 123 8 57 123 8 57 123 8 84 174 16 96 199 19 55 117 8 0 0 0 0 0 0 42 92 5 96 199 19 88 183 17 57 123 8 57 123 8 57 123 8 57 123 8 57 123 8 57 123 8 57 123 8 57 123 8 57 123 8 78 163 14 96 199 19 57 123 8 0 0 0 0 0 0 7 24 1 62 131 10 93 194 18 93 194 18 57 123 8 4 11 2 0 0 0 0 0 0 0 0 0 0 0 0 26 61 3 86 180 17 96 199 19 86 180 17 38 84 4 0 0 0 0 0 0 
0 0 0 0 0 0 0 0 0 6 19 3 72 151 13 96 199 19 93 194 18 55 117 8 0 0 0 0 0 0 13 36 1 74 154 13 96 199 19 90 188 18 52 112 7 0 0 0 0 0 0 0 0 0 0 0 0 81 169 15 96 199 19 45 99 6 0 0 0 0 0 0 0 0 0 0 0 0 0 0 0 0 0 0 0 0 0 0 0 0 0 0 0 50 107 7 96 199 19 78 163 14 0 0 0 0 0 0 70 147 12 96 199 19 57 123 8 0 0 0 0 0 0 0 0 0 0 0 0 0 0 0 0 0 0 0 0 0 0 0 0 0 0 0 26 61 3 93 194 18 86 180 17 0 0 0 0 0 0 0 0 0 0 0 0 38 84 4 88 183 17 96 199 19 78 163 14 26 61 3 0 0 0 0 0 0 42 92 5 90 188 18 96 199 19 81 169 15 26 61 3 0 0 0 0 0 0 0 0 0 
0 0 0 0 0 0 0 0 0 0 0 0 0 0 0 57 123 8 93 194 18 96 199 19 67 140 11 38 84 4 86 180 17 96 199 19 84 174 16 31 72 3 0 0 0 0 0 0 0 0 0 0 0 0 13 36 1 93 194 18 88 183 17 4 11 2 0 0 0 0 0 0 0 0 0 0 0 0 0 0 0 0 0 0 0 0 0 0 0 0 0 0 0 7 24 1 93 194 18 90 188 18 0 0 0 0 0 0 84 174 16 93 194 18 26 61 3 0 0 0 0 0 0 0 0 0 0 0 0 0 0 0 0 0 0 0 0 0 0 0 0 0 0 0 0 0 0 81 169 15 93 194 18 29 68 3 0 0 0 0 0 0 0 0 0 0 0 0 17 44 2 74 154 13 96 199 19 90 188 18 50 107 7 56 119 8 93 194 18 96 199 19 72 151 13 6 19 3 0 0 0 0 0 0 0 0 0 0 0 0 
0 0 0 0 0 0 0 0 0 0 0 0 0 0 0 0 0 0 45 99 6 90 188 18 96 199 19 93 194 18 93 194 18 70 147 12 9 28 2 0 0 0 0 0 0 0 0 0 0 0 0 78 163 14 86 180 17 96 199 19 93 194 18 84 174 16 84 174 16 84 174 16 84 174 16 84 174 16 84 174 16 84 174 16 84 174 16 84 174 16 84 174 16 84 174 16 93 194 18 74 154 13 0 0 0 0 0 0 86 180 17 90 188 18 7 24 1 0 0 0 0 0 0 0 0 0 0 0 0 0 0 0 0 0 0 0 0 0 0 0 0 0 0 0 0 0 0 70 147 12 96 199 19 52 112 7 0 0 0 0 0 0 0 0 0 0 0 0 0 0 0 0 0 0 57 123 8 93 194 18 96 199 19 96 199 19 93 194 18 57 123 8 0 0 0 0 0 0 0 0 0 0 0 0 0 0 0 0 0 0 
0 0 0 0 0 0 0 0 0 0 0 0 0 0 0 0 0 0 15 40 1 80 166 15 96 199 19 96 199 19 88 183 17 29 68 3 0 0 0 0 0 0 0 0 0 0 0 0 4 11 2 90 188 18 96 199 19 96 199 19 96 199 19 96 199 19 96 199 19 96 199 19 96 199 19 96 199 19 96 199 19 96 199 19 96 199 19 96 199 19 96 199 19 96 199 19 96 199 19 50 107 7 0 0 0 0 0 0 86 180 17 90 188 18 4 11 2 0 0 0 0 0 0 0 0 0 0 0 0 0 0 0 0 0 0 0 0 0 0 0 0 0 0 0 0 0 0 70 147 12 96 199 19 56 119 8 0 0 0 0 0 0 0 0 0 0 0 0 0 0 0 0 0 0 17 44 2 84 174 16 96 199 19 96 199 19 86 180 17 31 72 3 0 0 0 0 0 0 0 0 0 0 0 0 0 0 0 0 0 0 
0 0 0 0 0 0 0 0 0 0 0 0 0 0 0 45 99 6 86 180 17 96 199 19 81 169 15 81 169 15 96 199 19 90 188 18 42 92 5 0 0 0 0 0 0 0 0 0 0 0 0 29 68 3 55 117 8 96 199 19 78 163 14 29 68 3 29 68 3 29 68 3 29 68 3 29 68 3 29 68 3 29 68 3 29 68 3 29 68 3 29 68 3 34 77 4 90 188 18 90 188 18 0 0 0 0 0 0 84 174 16 93 194 18 17 44 2 0 0 0 0 0 0 0 0 0 0 0 0 0 0 0 0 0 0 0 0 0 0 0 0 0 0 0 0 0 0 70 147 12 96 199 19 56 119 8 0 0 0 0 0 0 0 0 0 0 0 0 0 0 0 31 72 3 86 180 17 96 199 19 86 180 17 74 154 13 96 199 19 90 188 18 50 107 7 0 0 0 0 0 0 0 0 0 0 0 0 0 0 0 
0 0 0 0 0 0 0 0 0 6 19 3 67 140 11 93 194 18 93 194 18 67 140 11 6 19 3 9 28 2 72 151 13 96 199 19 93 194 18 56 119 8 0 0 0 0 0 0 0 0 0 0 0 0 26 61 3 96 199 19 86 180 17 0 0 0 0 0 0 0 0 0 0 0 0 0 0 0 0 0 0 0 0 0 0 0 0 0 0 0 0 0 0 34 77 4 93 194 18 84 174 16 0 0 0 0 0 0 72 151 13 96 199 19 50 107 7 0 0 0 0 0 0 0 0 0 0 0 0 0 0 0 0 0 0 0 0 0 0 0 0 0 0 0 0 0 0 81 169 15 96 199 19 34 77 4 0 0 0 0 0 0 0 0 0 0 0 0 45 99 6 90 188 18 96 199 19 78 163 14 17 44 2 0 0 0 56 119 8 93 194 18 96 199 19 70 147 12 9 28 2 0 0 0 0 0 0 0 0 0 
0 0 0 0 0 0 29 68 3 81 169 15 96 199 19 90 188 18 50 107 7 0 0 0 0 0 0 0 0 0 4 11 2 62 131 10 93 194 18 96 199 19 70 147 12 4 11 2 0 0 0 0 0 0 4 11 2 88 183 17 93 194 18 42 92 5 0 0 0 0 0 0 0 0 0 0 0 0 0 0 0 0 0 0 0 0 0 0 0 0 0 0 0 72 151 13 96 199 19 62 131 10 0 0 0 0 0 0 42 92 5 93 194 18 81 169 15 7 24 1 0 0 0 0 0 0 0 0 0 0 0 0 0 0 0 0 0 0 0 0 0 0 0 0 29 68 3 93 194 18 88 183 17 4 11 2 0 0 0 0 0 0 0 0 0 57 123 8 93 194 18 96 199 19 70 147 12 6 19 3 0 0 0 0 0 0 0 0 0 38 84 4 86 180 17 96 199 19 84 174 16 31 72 3 0 0 0 0 0 0 
0 0 0 50 107 7 90 188 18 96 199 19 81 169 15 26 61 3 0 0 0 0 0 0 0 0 0 0 0 0 0 0 0 0 0 0 50 107 7 93 194 18 96 199 19 78 163 14 20 49 2 0 0 0 0 0 0 67 140 11 96 199 19 90 188 18 86 180 17 86 180 17 86 180 17 86 180 17 86 180 17 86 180 17 86 180 17 86 180 17 86 180 17 93 194 18 90 188 18 15 40 1 0 0 0 0 0 0 0 0 0 81 169 15 96 199 19 93 194 18 86 180 17 86 180 17 86 180 17 86 180 17 86 180 17 86 180 17 86 180 17 86 180 17 90 188 18 96 199 19 62 131 10 0 0 0 0 0 0 7 24 1 72 151 13 96 199 19 93 194 18 57 123 8 0 0 0 0 0 0 0 0 0 0 0 0 0 0 0 0 0 0 13 36 1 72 151 13 96 199 19 93 194 18 57 123 8 0 0 0 
57 123 8 88 183 17 90 188 18 67 140 11 4 11 2 0 0 0 0 0 0 0 0 0 0 0 0 0 0 0 0 0 0 0 0 0 0 0 0 38 84 4 86 180 17 90 188 18 78 163 14 20 49 2 0 0 0 17 44 2 86 180 17 93 194 18 93 194 18 93 194 18 93 194 18 93 194 18 93 194 18 93 194 18 93 194 18 93 194 18 93 194 18 90 188 18 52 112 7 0 0 0 0 0 0 0 0 0 0 0 0 38 84 4 90 188 18 93 194 18 93 194 18 93 194 18 93 194 18 93 194 18 93 194 18 93 194 18 93 194 18 93 194 18 93 194 18 86 180 17 9 28 2 0 0 0 6 19 3 72 151 13 90 188 18 88 183 17 45 99 6 0 0 0 0 0 0 0 0 0 0 0 0 0 0 0 0 0 0 0 0 0 0 0 0 0 0 0 55 117 8 88 183 17 88 183 17 70 147 12 
